<?xml version="1.0" encoding="utf-8"?>
<svg viewBox="54.819 112.3471 391.6959 56.3649" xmlns="http://www.w3.org/2000/svg">
  <g id="SVGRepo_iconCarrier" transform="matrix(2.7343180179595947, 0, 0, 2.7343180179595947, 141.68014526367193, 112.64010620117189)" style="">
    <path fill="url(#azure-aks-color-16__paint0_linear_2372_185)" d="M5.511 2l-2.224.412v3.034l2.224.474 2.232-.894V2.762L5.511 2z"/>
    <path fill="#341A6E" d="M3.287 2.412v3.034l2.247.474V2.031l-2.247.381zm.949 2.8l-.63-.124V2.754l.63-.1v2.558zm.98.18l-.724-.118V2.607l.724-.125v2.91z"/>
    <path fill="url(#azure-aks-color-16__paint1_linear_2372_185)" d="M10.325 2.039l-2.224.412v3.033l2.224.475 2.225-.902V2.8l-2.225-.762z"/>
    <path fill="#341A6E" d="M8.101 2.451v3.033l2.232.475V2.07l-2.232.381zm.941 2.8l-.63-.124V2.793l.63-.1V5.25zm.98.179L9.3 5.313V2.646l.723-.133V5.43z"/>
    <path fill="url(#azure-aks-color-16__paint2_linear_2372_185)" d="M3.232 6.184l-2.224.413V9.63l2.224.474 2.232-.894V6.947l-2.232-.763z"/>
    <path fill="#341A6E" d="M1 6.597v3.01l2.248.474V6.192L1 6.597zm.941 2.807l-.63-.132V6.94l.63-.109v2.574zm.988.203l-.723-.117V6.791l.723-.124v2.94z"/>
    <path fill="url(#azure-aks-color-16__paint3_linear_2372_185)" d="M8.031 6.153l-2.224.413v3.033l2.224.482 2.224-.902V6.916l-2.224-.763z"/>
    <path fill="#341A6E" d="M5.807 6.566v3.04l2.24.475V6.192l-2.24.374zm.94 2.807l-.63-.132V6.908l.63-.11v2.575zm.98.171l-.723-.116V6.76l.724-.124v2.908z"/>
    <path fill="url(#azure-aks-color-16__paint4_linear_2372_185)" d="M12.83 6.192l-2.225.412v3.034l2.225.474 2.232-.894V6.954l-2.232-.762z"/>
    <path fill="#341A6E" d="M10.605 6.604v3.003l2.248.474V6.192l-2.248.412zm.95 2.808l-.63-.132V6.947l.63-.11v2.575zm.98.171l-.724-.116V6.799l.723-.125v2.91z"/>
    <path fill="url(#azure-aks-color-16__paint5_linear_2372_185)" d="M5.457 10.415l-2.225.405v3.033l2.225.482 2.232-.902v-2.255l-2.232-.763z"/>
    <path fill="#341A6E" d="M3.232 10.82v3.033l2.248.483v-3.952l-2.248.436zm.95 2.808l-.63-.132v-2.334l.63-.109v2.575zm.98.179l-.724-.117v-2.675l.723-.125v2.917z"/>
    <path fill="url(#azure-aks-color-16__paint6_linear_2372_185)" d="M10.263 10.447l-2.224.412v3.033l2.224.475 2.232-.895V11.21l-2.232-.762z"/>
    <path fill="#341A6E" d="M8.039 10.859v3.033l2.248.475v-3.89l-2.248.382zm.949 2.808l-.63-.133v-2.333l.63-.109v2.575zm.98.17l-.724-.116v-2.668l.724-.124v2.909z"/>
    <defs>
      <linearGradient id="azure-aks-color-16__paint0_linear_2372_185" x1="3.287" x2="7.743" y1="3.96" y2="3.96" gradientUnits="userSpaceOnUse">
        <stop stop-color="#B77AF4"/>
        <stop offset="1" stop-color="#773ADC"/>
      </linearGradient>
      <linearGradient id="azure-aks-color-16__paint1_linear_2372_185" x1="8.101" x2="12.55" y1="3.999" y2="3.999" gradientUnits="userSpaceOnUse">
        <stop stop-color="#B77AF4"/>
        <stop offset="1" stop-color="#773ADC"/>
      </linearGradient>
      <linearGradient id="azure-aks-color-16__paint2_linear_2372_185" x1="1.008" x2="5.457" y1="8.144" y2="8.144" gradientUnits="userSpaceOnUse">
        <stop stop-color="#B77AF4"/>
        <stop offset="1" stop-color="#773ADC"/>
      </linearGradient>
      <linearGradient id="azure-aks-color-16__paint3_linear_2372_185" x1="5.807" x2="10.255" y1="8.113" y2="8.113" gradientUnits="userSpaceOnUse">
        <stop stop-color="#B77AF4"/>
        <stop offset="1" stop-color="#773ADC"/>
      </linearGradient>
      <linearGradient id="azure-aks-color-16__paint4_linear_2372_185" x1="10.605" x2="15.062" y1="8.152" y2="8.152" gradientUnits="userSpaceOnUse">
        <stop stop-color="#B77AF4"/>
        <stop offset="1" stop-color="#773ADC"/>
      </linearGradient>
      <linearGradient id="azure-aks-color-16__paint5_linear_2372_185" x1="3.232" x2="7.689" y1="12.376" y2="12.376" gradientUnits="userSpaceOnUse">
        <stop stop-color="#B77AF4"/>
        <stop offset="1" stop-color="#773ADC"/>
      </linearGradient>
      <linearGradient id="azure-aks-color-16__paint6_linear_2372_185" x1="8.039" x2="12.495" y1="12.407" y2="12.407" gradientUnits="userSpaceOnUse">
        <stop stop-color="#B77AF4"/>
        <stop offset="1" stop-color="#773ADC"/>
      </linearGradient>
    </defs>
  </g>
  <path d="M 73.819 154.26 C 73.049 154.26 72.568 153.427 72.953 152.76 C 73.132 152.451 73.462 152.26 73.819 152.26 L 73.819 154.26 Z" fill="#0370c8"/>
  <path d="M 74.819 153.26 C 74.819 153.812 74.371 154.26 73.819 154.26 L 73.819 152.26 C 74.371 152.26 74.819 152.708 74.819 153.26 Z" fill="#0f5094"/>
  <circle cx="91.819" cy="121.26" fill="#0883d9" r="1"/>
  <circle cx="55.819" cy="121.26" fill="#33bff0" r="1"/>
  <path d="M 73.819 153.26 L 74.246 154.167 C 74.246 154.167 89.39 146.267 92.326 134.26 L 73.819 134.26 L 73.819 153.26 Z" fill="#0f5094"/>
  <path d="M 92.819 121.26 L 91.819 120.26 C 80.697 120.26 80.541 114.26 73.819 114.26 L 73.819 134.26 L 92.326 134.26 C 92.641 132.972 92.819 131.638 92.819 130.26 L 92.819 121.26 Z" fill="#0883d9"/>
  <path d="M 73.819 153.26 L 73.392 154.167 C 73.392 154.167 58.248 146.267 55.312 134.26 L 73.819 134.26 L 73.819 153.26 Z" fill="#0370c8"/>
  <path d="M 54.819 121.26 L 55.819 120.26 C 66.941 120.26 67.097 114.26 73.819 114.26 L 73.819 134.26 L 55.312 134.26 C 54.988 132.951 54.822 131.608 54.819 130.26 L 54.819 121.26 Z" fill="#33bff0"/>
  <g id="g-3" transform="matrix(0.10829801112413406, 0, 0, 0.10829801112413406, 230.39280700683594, 112.34714508056642)" style="">
    <g>
      <path d="M87.9320692,36.714181 C83.382936,32.1427482 77.0364491,29.3196096 69.9808327,29.3196096 C62.9519759,29.3196096 56.6545483,32.1427482 52.1589343,36.714181 L52.0295962,36.714181 C47.4938428,41.2633143 44.6707042,47.614261 44.6707042,54.6431179 C44.6707042,61.6987343 47.4938428,67.9961618 52.0295962,72.5185355 L52.1589343,72.6211139 C56.6545483,77.1702472 62.9519759,79.9666261 69.9808327,79.9666261 C77.0364491,79.9666261 83.382936,77.1702472 87.9320692,72.6211139 L87.9989682,72.5185355 C92.5570213,67.9961618 95.3534002,61.6987343 95.3534002,54.6431179 C95.3534002,47.614261 92.5570213,41.2633143 87.9989682,36.714181 L87.9320692,36.714181 Z M69.9808327,383.353672 C77.0364491,383.353672 83.382936,380.481475 87.9320692,375.985861 L87.9989682,375.852063 C92.5570213,371.365368 95.3534002,365.014422 95.3534002,358.034624 C95.3534002,350.979008 92.5570213,344.654821 87.9989682,340.083388 L87.9320692,340.083388 C83.382936,335.458436 77.0364491,332.662057 69.9808327,332.662057 C62.9519759,332.662057 56.6545483,335.458436 52.1589343,340.083388 L52.0295962,340.083388 C47.4938428,344.654821 44.6707042,350.979008 44.6707042,358.034624 C44.6707042,365.014422 47.4938428,371.365368 52.0295962,375.852063 L52.1589343,375.985861 C56.6545483,380.481475 62.9519759,383.353672 69.9808327,383.353672 Z M207.953367,306.633879 C214.228495,304.988163 219.910452,300.960842 223.375821,294.873031 L223.844114,293.985504 C226.925929,288.209889 227.487881,281.546747 225.842165,275.641794 C224.183069,269.317607 220.106689,263.724849 214.032258,260.2238 L213.679923,259.987423 C207.76159,256.745051 201.018169,256.040381 194.82332,257.712857 C188.525893,259.282754 182.870696,263.488472 179.423166,269.527223 C175.931037,275.507996 175.199608,282.407514 176.872084,288.758461 C178.598078,295.002369 182.634319,300.648647 188.66861,304.176455 L188.70875,304.176455 C194.756421,307.650744 201.60688,308.279595 207.953367,306.633879 Z M95.9688712,180.386512 C89.3146489,173.750129 80.1450235,169.59347 69.9808327,169.59347 C59.8567813,169.59347 50.7094556,173.750129 44.0686131,180.386512 C37.4589901,187.000595 33.38261,196.147921 33.38261,206.285352 C33.38261,216.449543 37.4589901,225.623628 44.0686131,232.31353 C50.7094556,238.896393 59.8567813,243.026292 69.9808327,243.026292 C80.1450235,243.026292 89.3146489,238.896393 95.9688712,232.31353 C102.591874,225.623628 106.668254,216.449543 106.668254,206.285352 C106.668254,196.147921 102.591874,187.000595 95.9688712,180.386512 Z M81.3581257,137.223266 C96.0848295,139.64947 109.335295,146.705086 119.445967,156.896037 L119.526245,156.896037 C121.131822,158.514993 122.701719,160.267747 124.151198,162.042801 L149.434566,147.414216 C146.036096,137.142987 145.879999,126.403464 148.609478,116.341852 C152.217565,102.85501 160.959037,90.7819674 174.062325,83.2045386 L174.494938,82.9458624 C187.455508,75.6003502 202.191132,74.0839725 215.495117,77.6920595 C228.964119,81.2956866 241.11744,90.0772977 248.681489,103.171665 L248.681489,103.198425 C256.209859,116.212514 257.739616,131.157755 254.144909,144.591077 C250.563582,158.069 241.781971,170.222321 228.692063,177.746231 L225.240074,179.788881 L224.887739,179.788881 C212.779016,185.560036 199.461652,186.452023 187.232511,183.23641 C177.188739,180.569369 167.974514,174.976611 160.7628,167.006708 L135.519571,181.590694 C138.418528,189.270702 140.028564,197.55726 140.028564,206.285352 C140.028564,214.986684 138.418528,223.375821 135.519571,231.109347 L160.7628,245.639814 C167.974514,237.567333 177.188739,232.077153 187.232511,229.410112 C200.701514,225.726206 215.637835,227.296103 228.692063,234.900292 L229.526071,235.292766 L229.526071,235.346285 C242.138765,242.972773 250.603721,254.78714 254.144909,268.113424 C257.739616,281.466468 256.209859,296.416169 248.681489,309.457017 L248.226576,310.371304 L248.173057,310.291025 C240.609008,322.86358 228.692063,331.382055 215.535256,334.985683 C202.035034,338.54025 187.103173,337.023873 174.062325,329.526723 L174.062325,329.419684 C160.959037,321.842255 152.217565,309.742453 148.609478,296.286831 C145.879999,286.251978 146.036096,275.507996 149.434566,265.241226 L124.151198,250.65724 C122.701719,252.436754 121.131822,254.10923 119.526245,255.728186 L119.445967,255.804005 C109.335295,265.945896 96.0848295,273.001512 81.3581257,275.351898 L81.3581257,304.568929 C91.8523516,306.763217 101.258354,312.01702 108.630625,319.384832 L108.666305,319.46511 C118.54506,329.290346 124.65963,342.982345 124.65963,358.034624 C124.65963,373.037844 118.54506,386.645104 108.666305,396.523859 L108.630625,396.679957 C98.6849713,406.558712 85.0331117,412.673282 69.9808327,412.673282 C55.0088325,412.673282 41.3391332,406.558712 31.4202388,396.679957 L31.3845593,396.679957 L31.3845593,396.523859 C21.4924245,386.645104 15.3644745,373.037844 15.3644745,358.034624 C15.3644745,342.982345 21.4924245,329.290346 31.3845593,319.46511 L31.3845593,319.384832 L31.4202388,319.384832 C38.7791307,312.01702 48.1985125,306.763217 58.6659788,304.568929 L58.6659788,275.351898 C43.9258952,273.001512 30.7155691,265.945896 20.6182773,255.804005 L20.5112389,255.728186 C7.88962418,243.053052 0,225.623628 0,206.285352 C0,187.000595 7.88962418,169.571171 20.5112389,156.896037 L20.6182773,156.896037 C30.7155691,146.705086 43.9258952,139.64947 58.6659788,137.223266 L58.6659788,108.135573 C48.1985125,105.861006 38.7791307,100.611663 31.4202388,93.2929105 L31.3845593,93.2929105 L31.3845593,93.2126317 C21.4924245,83.2848174 15.3644745,69.6953969 15.3644745,54.6431179 C15.3644745,39.6666577 21.4924245,25.9478991 31.3845593,16.0691441 L31.4202388,16.0200848 C41.3391332,6.11457024 55.0088325,0 69.9808327,0 C85.0331117,0 98.6849713,6.11457024 108.630625,16.0200848 L108.630625,16.0691441 L108.666305,16.0691441 C118.54506,25.9478991 124.65963,39.6666577 124.65963,54.6431179 C124.65963,69.6953969 118.54506,83.2848174 108.666305,93.2126317 L108.630625,93.2929105 C101.258354,100.611663 91.8523516,105.861006 81.3581257,108.135573 L81.3581257,137.223266 Z M223.375821,117.83147 L223.166204,117.519275 C219.674075,111.636621 214.108077,107.716339 207.953367,106.017104 C201.60688,104.344628 194.756421,105.053758 188.66861,108.528047 L188.70875,108.528047 C182.634319,111.975576 178.571319,117.621853 176.872084,123.946041 C175.199608,130.216708 175.931037,137.142987 179.423166,143.177278 L179.539124,143.337836 C183.040173,149.291848 188.606171,153.28795 194.82332,154.906906 C201.071688,156.65966 208.033646,155.928231 214.032258,152.427182 L214.357833,152.271085 C220.262787,148.743276 224.196449,143.177278 225.842165,137.062708 C227.51464,130.76528 226.85011,123.865762 223.375821,117.83147 Z" fill="#1A1919"/>
    </g>
  </g>
  <path fill="#1d3649" d="M 319.055 146.202 L 319.055 149.562 C 319.055 149.664 319.099 149.741 319.188 149.792 L 322.17 151.505 C 322.288 151.574 322.288 151.743 322.172 151.81 C 322.168 151.812 322.164 151.814 322.161 151.815 L 319.161 153.286 C 319.084 153.325 319.005 153.327 318.926 153.293 C 314.136 151.309 308.685 147.546 307.222 142.245 C 307.025 141.536 306.929 140.635 306.933 139.541 C 306.946 135.515 306.947 131.498 306.936 127.49 C 306.936 127.417 306.975 127.349 307.038 127.313 L 318.868 120.481 C 318.952 120.433 319.036 120.433 319.12 120.481 L 330.914 127.287 C 330.997 127.335 331.048 127.424 331.048 127.519 L 331.048 130.819 C 331.047 130.899 330.961 130.948 330.89 130.909 L 319.205 124.161 C 319.105 124.105 319.055 124.134 319.055 124.249 L 319.055 127.636 C 319.055 127.72 319.091 127.783 319.164 127.825 L 330.941 134.618 C 331.012 134.66 331.048 134.722 331.048 134.805 L 331.048 138.175 C 331.049 138.236 330.983 138.276 330.929 138.247 C 330.928 138.246 330.927 138.246 330.927 138.245 L 319.166 131.459 C 319.116 131.431 319.054 131.466 319.055 131.522 C 319.055 131.522 319.055 131.522 319.055 131.522 L 319.055 134.921 C 319.055 135.026 319.1 135.105 319.19 135.156 L 330.745 141.826 C 330.826 141.873 330.856 141.942 330.837 142.034 C 330.622 142.986 330.272 143.885 329.788 144.731 C 329.738 144.818 329.67 144.837 329.584 144.787 L 319.173 138.781 C 319.12 138.751 319.054 138.788 319.055 138.848 C 319.055 138.848 319.055 138.848 319.055 138.848 L 319.055 142.19 C 319.055 142.329 319.114 142.433 319.234 142.502 L 327.714 147.386 C 327.806 147.44 327.812 147.502 327.733 147.573 L 325.482 149.582 C 325.41 149.645 325.331 149.652 325.247 149.603 L 319.212 146.112 C 319.141 146.073 319.055 146.123 319.055 146.202 Z M 380.279 132.288 C 381.757 130.388 384.664 130.231 386.775 130.851 C 388.655 131.405 389.63 132.731 389.699 134.829 C 389.702 134.921 389.658 134.967 389.566 134.967 L 388.042 134.967 C 387.937 134.967 387.878 134.915 387.865 134.81 C 387.562 132.363 385.26 131.815 383.201 132.314 C 381.655 132.69 380.769 134.361 381.902 135.662 C 382.598 136.46 387.012 137.22 387.504 137.373 C 389.934 138.124 391.162 140.801 389.75 142.948 C 387.93 145.712 382.545 145.872 380.347 143.561 C 379.609 142.782 379.17 141.762 379.031 140.501 C 379.009 140.284 379.106 140.176 379.322 140.176 L 380.669 140.176 C 380.777 140.176 380.837 140.229 380.849 140.336 C 381.046 142.094 382.054 143.124 383.875 143.428 C 385.086 143.629 386.654 143.583 387.572 142.802 C 388.909 141.671 388.589 139.929 387.019 139.224 C 385.239 138.424 383.533 138.383 381.447 137.56 C 379.24 136.69 378.939 134.01 380.279 132.288 Z" style=""/>
  <rect width="1.88" height="13.994" x="342.374" y="130.848" fill="#1d3649" rx="0.6" style=""/>
  <path fill="#1d3649" d="M 354.929 137.482 C 358.564 138.151 357.98 143.306 355.08 144.484 C 354.503 144.717 353.445 144.837 351.906 144.845 C 350.138 144.851 348.369 144.847 346.597 144.833 C 346.487 144.831 346.433 144.776 346.433 144.668 L 346.433 130.969 C 346.432 130.905 346.484 130.852 346.549 130.851 C 348.556 130.846 350.576 130.844 352.608 130.844 C 353.895 130.846 355.298 131.108 356.129 132.14 C 357.505 133.848 356.955 136.464 354.92 137.404 C 354.891 137.418 354.888 137.458 354.914 137.476 C 354.919 137.479 354.924 137.481 354.929 137.482 Z M 348.371 132.581 L 348.366 136.729 C 348.366 136.784 348.41 136.829 348.465 136.83 L 352.722 136.838 C 353.964 136.84 354.972 135.96 354.973 134.873 L 354.973 134.456 C 354.974 133.37 353.971 132.489 352.732 132.486 L 348.475 132.479 C 348.418 132.478 348.371 132.523 348.371 132.581 Z M 348.364 138.623 L 348.378 143.081 C 348.378 143.157 348.44 143.219 348.516 143.219 L 353.156 143.202 C 354.494 143.198 355.575 142.147 355.571 140.855 L 355.571 140.801 C 355.567 139.509 354.479 138.464 353.141 138.468 L 348.502 138.485 C 348.425 138.485 348.364 138.547 348.364 138.623 Z M 360.7 133.528 C 360.689 133.491 360.641 133.48 360.614 133.508 C 360.605 133.519 360.6 133.533 360.601 133.547 L 360.608 144.687 C 360.608 144.789 360.558 144.84 360.456 144.84 L 358.971 144.84 C 358.849 144.84 358.789 144.78 358.789 144.658 L 358.789 131.03 C 358.789 130.909 358.849 130.848 358.971 130.848 L 361.236 130.848 C 361.341 130.848 361.412 130.898 361.449 130.996 L 365.658 142.221 C 365.684 142.293 365.778 142.309 365.827 142.251 C 365.834 142.242 365.84 142.232 365.844 142.221 L 370.079 130.969 C 370.11 130.889 370.168 130.848 370.254 130.848 L 372.538 130.848 C 372.659 130.848 372.72 130.909 372.72 131.03 L 372.72 144.687 C 372.72 144.789 372.67 144.84 372.57 144.84 L 371.053 144.84 C 370.951 144.84 370.9 144.789 370.9 144.687 L 370.908 133.739 C 370.907 133.676 370.839 133.636 370.786 133.666 C 370.769 133.676 370.756 133.691 370.75 133.71 L 366.622 144.709 C 366.589 144.796 366.527 144.84 366.435 144.84 L 365.105 144.84 C 364.999 144.84 364.927 144.791 364.889 144.692 L 360.7 133.528 Z" style=""/>
  <rect width="1.696" height="2.122" x="-0.848" y="-1.061" fill="#1d3649" rx="0.59" transform="matrix(0.9999859929084778, -0.005236000753939152, 0.005236000753939152, 0.9999859929084778, 429.0498962402344, 131.90956115722656)" style=""/>
  <path fill="#1d3649" d="M 434.562 134.725 L 436.258 134.725 C 436.379 134.725 436.44 134.785 436.44 134.907 L 436.44 136.091 C 436.44 136.196 436.387 136.248 436.282 136.246 L 434.579 136.222 C 434.487 136.221 434.441 136.266 434.441 136.358 L 434.441 142.752 C 434.441 143.041 434.669 143.279 434.957 143.289 L 436.328 143.34 C 436.403 143.344 436.44 143.383 436.44 143.457 L 436.44 144.654 C 436.44 144.747 436.393 144.799 436.299 144.809 C 435.287 144.92 432.767 145.019 432.757 143.43 C 432.741 141.078 432.739 138.742 432.75 136.421 C 432.75 136.321 432.669 136.239 432.568 136.239 L 431.11 136.239 C 431.029 136.239 430.989 136.199 430.989 136.118 L 430.989 134.907 C 430.989 134.785 431.049 134.725 431.17 134.725 L 432.624 134.725 C 432.705 134.725 432.745 134.685 432.745 134.604 L 432.745 131.878 C 432.745 131.757 432.806 131.696 432.927 131.696 L 434.259 131.696 C 434.381 131.696 434.441 131.757 434.441 131.878 L 434.441 134.604 C 434.441 134.685 434.481 134.725 434.562 134.725 Z M 391.889 142.328 C 390.44 138.824 392.132 134.228 396.468 134.473 C 399.48 134.64 400.856 137.484 400.701 140.171 C 400.697 140.242 400.639 140.298 400.568 140.297 L 393.316 140.297 C 393.261 140.297 393.216 140.341 393.215 140.397 C 393.127 143.73 397.668 144.903 398.891 141.69 C 398.922 141.61 398.981 141.569 399.068 141.569 L 400.393 141.569 C 400.49 141.569 400.53 141.617 400.514 141.712 C 399.79 146.105 393.462 146.124 391.889 142.328 Z M 393.261 138.793 L 398.828 138.773 C 398.845 138.773 398.86 138.759 398.86 138.742 L 398.86 138.722 C 398.854 137.215 397.597 135.996 396.052 136.002 L 396.018 136.002 C 394.472 136.007 393.224 137.234 393.229 138.742 L 393.229 138.761 C 393.229 138.779 393.243 138.793 393.261 138.793 Z M 402.809 136.164 C 404.863 133.501 410.569 133.862 410.792 137.887 C 410.797 137.959 410.763 137.996 410.69 137.996 L 409.234 137.996 C 409.126 137.996 409.06 137.942 409.036 137.836 C 408.66 136.118 406.763 135.563 405.355 136.21 C 402.615 137.47 402.792 143.445 406.446 143.537 C 407.868 143.574 408.774 142.806 409.162 141.233 C 409.187 141.134 409.251 141.085 409.353 141.085 L 410.748 141.085 C 410.829 141.085 410.865 141.125 410.857 141.206 C 410.499 144.683 406.773 146.076 403.933 144.435 C 401.258 142.887 401.06 138.429 402.809 136.164 Z M 423.723 136.527 C 424.401 135.13 425.534 134.445 427.122 134.473 C 427.236 134.476 427.294 134.534 427.294 134.647 L 427.294 136.13 C 427.294 136.24 427.238 136.295 427.127 136.295 C 425.625 136.297 424.608 136.84 424.076 137.925 C 423.342 139.43 423.65 142.771 423.662 144.707 C 423.663 144.796 423.619 144.84 423.529 144.84 L 422.085 144.84 C 421.964 144.84 421.903 144.78 421.903 144.658 L 421.903 134.907 C 421.903 134.785 421.964 134.725 422.085 134.725 L 423.357 134.725 C 423.478 134.725 423.538 134.785 423.538 134.907 L 423.538 136.486 C 423.539 136.561 423.62 136.607 423.685 136.569 C 423.701 136.559 423.714 136.545 423.723 136.527 Z M 418.693 143.445 C 418.695 143.383 418.63 143.342 418.576 143.371 C 418.562 143.378 418.55 143.39 418.543 143.403 C 416.944 146.105 411.979 145.591 411.921 141.928 C 411.893 140.227 411.893 137.867 411.921 134.846 C 411.923 134.765 411.963 134.725 412.042 134.725 L 413.472 134.725 C 413.556 134.725 413.598 134.767 413.6 134.851 C 413.611 137.154 413.612 139.453 413.603 141.749 C 413.598 142.735 414.446 143.423 415.417 143.505 C 417.935 143.721 418.572 141.911 418.569 139.764 C 418.568 138.125 418.569 136.488 418.574 134.853 C 418.576 134.768 418.618 134.725 418.703 134.725 L 420.086 134.725 C 420.207 134.725 420.268 134.785 420.268 134.907 L 420.268 144.658 C 420.268 144.78 420.207 144.84 420.086 144.84 L 418.875 144.84 C 418.753 144.84 418.693 144.78 418.693 144.658 L 418.693 143.445 Z" style=""/>
  <rect width="1.696" height="10.113" x="428.202" y="134.727" fill="#1d3649" rx="0.51" style=""/>
  <path fill="#1d3649" d="M 441.833 142.701 C 441.852 142.759 441.928 142.775 441.969 142.729 C 441.977 142.72 441.982 142.71 441.986 142.698 L 444.67 134.848 C 444.698 134.766 444.756 134.725 444.845 134.725 L 446.436 134.725 C 446.492 134.724 446.53 134.78 446.509 134.831 C 445.088 138.535 443.664 142.229 442.238 145.913 C 441.491 147.847 440.641 149.448 438.15 148.712 C 438.06 148.686 438.015 148.625 438.015 148.53 L 438.015 147.258 C 438.015 147.16 438.062 147.12 438.158 147.139 C 438.456 147.193 438.751 147.333 439.025 147.336 C 440.263 147.35 440.673 145.819 440.978 144.787 C 440.999 144.719 440.996 144.651 440.971 144.583 L 437.104 134.89 C 437.06 134.78 437.097 134.725 437.215 134.725 L 438.826 134.725 C 438.936 134.725 439.01 134.777 439.047 134.88 L 441.833 142.701 Z" style=""/>
  <ellipse style="fill: rgb(89, 174, 31); stroke: rgb(88, 174, 32);" cx="93.382" cy="161.806" rx="6.353" ry="6.353"/>
  <ellipse style="fill: rgb(89, 174, 31); stroke: rgb(88, 174, 32);" cx="349.905" cy="162.034" rx="6.353" ry="6.353"/>
  <ellipse style="fill: rgb(89, 174, 31); stroke: rgb(88, 174, 32);" cx="273.919" cy="162.359" rx="6.353" ry="6.353"/>
  <ellipse style="fill: rgb(89, 174, 31); stroke: rgb(88, 174, 32);" cx="188.057" cy="161.762" rx="6.353" ry="6.353"/>
</svg>