<?xml version="1.0" encoding="utf-8"?>
<svg viewBox="14.783 113.0696 481.0629 58.1264" xmlns="http://www.w3.org/2000/svg">
  <g id="SVGRepo_iconCarrier" transform="matrix(2.7343180179595947, 0, 0, 2.7343180179595947, 101.64371490478521, 113.36254882812501)" style="">
    <path fill="url(#azure-aks-color-16__paint0_linear_2372_185)" d="M5.511 2l-2.224.412v3.034l2.224.474 2.232-.894V2.762L5.511 2z"/>
    <path fill="#341A6E" d="M3.287 2.412v3.034l2.247.474V2.031l-2.247.381zm.949 2.8l-.63-.124V2.754l.63-.1v2.558zm.98.18l-.724-.118V2.607l.724-.125v2.91z"/>
    <path fill="url(#azure-aks-color-16__paint1_linear_2372_185)" d="M10.325 2.039l-2.224.412v3.033l2.224.475 2.225-.902V2.8l-2.225-.762z"/>
    <path fill="#341A6E" d="M8.101 2.451v3.033l2.232.475V2.07l-2.232.381zm.941 2.8l-.63-.124V2.793l.63-.1V5.25zm.98.179L9.3 5.313V2.646l.723-.133V5.43z"/>
    <path fill="url(#azure-aks-color-16__paint2_linear_2372_185)" d="M3.232 6.184l-2.224.413V9.63l2.224.474 2.232-.894V6.947l-2.232-.763z"/>
    <path fill="#341A6E" d="M1 6.597v3.01l2.248.474V6.192L1 6.597zm.941 2.807l-.63-.132V6.94l.63-.109v2.574zm.988.203l-.723-.117V6.791l.723-.124v2.94z"/>
    <path fill="url(#azure-aks-color-16__paint3_linear_2372_185)" d="M8.031 6.153l-2.224.413v3.033l2.224.482 2.224-.902V6.916l-2.224-.763z"/>
    <path fill="#341A6E" d="M5.807 6.566v3.04l2.24.475V6.192l-2.24.374zm.94 2.807l-.63-.132V6.908l.63-.11v2.575zm.98.171l-.723-.116V6.76l.724-.124v2.908z"/>
    <path fill="url(#azure-aks-color-16__paint4_linear_2372_185)" d="M12.83 6.192l-2.225.412v3.034l2.225.474 2.232-.894V6.954l-2.232-.762z"/>
    <path fill="#341A6E" d="M10.605 6.604v3.003l2.248.474V6.192l-2.248.412zm.95 2.808l-.63-.132V6.947l.63-.11v2.575zm.98.171l-.724-.116V6.799l.723-.125v2.91z"/>
    <path fill="url(#azure-aks-color-16__paint5_linear_2372_185)" d="M5.457 10.415l-2.225.405v3.033l2.225.482 2.232-.902v-2.255l-2.232-.763z"/>
    <path fill="#341A6E" d="M3.232 10.82v3.033l2.248.483v-3.952l-2.248.436zm.95 2.808l-.63-.132v-2.334l.63-.109v2.575zm.98.179l-.724-.117v-2.675l.723-.125v2.917z"/>
    <path fill="url(#azure-aks-color-16__paint6_linear_2372_185)" d="M10.263 10.447l-2.224.412v3.033l2.224.475 2.232-.895V11.21l-2.232-.762z"/>
    <path fill="#341A6E" d="M8.039 10.859v3.033l2.248.475v-3.89l-2.248.382zm.949 2.808l-.63-.133v-2.333l.63-.109v2.575zm.98.17l-.724-.116v-2.668l.724-.124v2.909z"/>
    <defs>
      <linearGradient id="azure-aks-color-16__paint0_linear_2372_185" x1="3.287" x2="7.743" y1="3.96" y2="3.96" gradientUnits="userSpaceOnUse">
        <stop stop-color="#B77AF4"/>
        <stop offset="1" stop-color="#773ADC"/>
      </linearGradient>
      <linearGradient id="azure-aks-color-16__paint1_linear_2372_185" x1="8.101" x2="12.55" y1="3.999" y2="3.999" gradientUnits="userSpaceOnUse">
        <stop stop-color="#B77AF4"/>
        <stop offset="1" stop-color="#773ADC"/>
      </linearGradient>
      <linearGradient id="azure-aks-color-16__paint2_linear_2372_185" x1="1.008" x2="5.457" y1="8.144" y2="8.144" gradientUnits="userSpaceOnUse">
        <stop stop-color="#B77AF4"/>
        <stop offset="1" stop-color="#773ADC"/>
      </linearGradient>
      <linearGradient id="azure-aks-color-16__paint3_linear_2372_185" x1="5.807" x2="10.255" y1="8.113" y2="8.113" gradientUnits="userSpaceOnUse">
        <stop stop-color="#B77AF4"/>
        <stop offset="1" stop-color="#773ADC"/>
      </linearGradient>
      <linearGradient id="azure-aks-color-16__paint4_linear_2372_185" x1="10.605" x2="15.062" y1="8.152" y2="8.152" gradientUnits="userSpaceOnUse">
        <stop stop-color="#B77AF4"/>
        <stop offset="1" stop-color="#773ADC"/>
      </linearGradient>
      <linearGradient id="azure-aks-color-16__paint5_linear_2372_185" x1="3.232" x2="7.689" y1="12.376" y2="12.376" gradientUnits="userSpaceOnUse">
        <stop stop-color="#B77AF4"/>
        <stop offset="1" stop-color="#773ADC"/>
      </linearGradient>
      <linearGradient id="azure-aks-color-16__paint6_linear_2372_185" x1="8.039" x2="12.495" y1="12.407" y2="12.407" gradientUnits="userSpaceOnUse">
        <stop stop-color="#B77AF4"/>
        <stop offset="1" stop-color="#773ADC"/>
      </linearGradient>
    </defs>
  </g>
  <path d="M 33.783 154.982 C 33.013 154.982 32.532 154.149 32.917 153.482 C 33.096 153.173 33.426 152.982 33.783 152.982 L 33.783 154.982 Z" fill="#0370c8" transform="matrix(1, 0, 0, 1, 2.842170943040401e-14, 1.4210854715202004e-14)"/>
  <path d="M 34.783 153.982 C 34.783 154.534 34.335 154.982 33.783 154.982 L 33.783 152.982 C 34.335 152.982 34.783 153.43 34.783 153.982 Z" fill="#0f5094" transform="matrix(1, 0, 0, 1, 2.842170943040401e-14, 1.4210854715202004e-14)"/>
  <circle cx="51.783" cy="121.982" fill="#0883d9" r="1" transform="matrix(1, 0, 0, 1, 2.842170943040401e-14, 1.4210854715202004e-14)"/>
  <circle cx="15.783" cy="121.982" fill="#33bff0" r="1" transform="matrix(1, 0, 0, 1, 2.842170943040401e-14, 1.4210854715202004e-14)"/>
  <path d="M 33.783 153.982 L 34.21 154.889 C 34.21 154.889 49.354 146.989 52.29 134.982 L 33.783 134.982 L 33.783 153.982 Z" fill="#0f5094" transform="matrix(1, 0, 0, 1, 2.842170943040401e-14, 1.4210854715202004e-14)"/>
  <path d="M 52.783 121.982 L 51.783 120.982 C 40.661 120.982 40.505 114.982 33.783 114.982 L 33.783 134.982 L 52.29 134.982 C 52.605 133.694 52.783 132.36 52.783 130.982 L 52.783 121.982 Z" fill="#0883d9" transform="matrix(1, 0, 0, 1, 2.842170943040401e-14, 1.4210854715202004e-14)"/>
  <path d="M 33.783 153.982 L 33.356 154.889 C 33.356 154.889 18.212 146.989 15.276 134.982 L 33.783 134.982 L 33.783 153.982 Z" fill="#0370c8" transform="matrix(1, 0, 0, 1, 2.842170943040401e-14, 1.4210854715202004e-14)"/>
  <path d="M 14.783 121.982 L 15.783 120.982 C 26.905 120.982 27.061 114.982 33.783 114.982 L 33.783 134.982 L 15.276 134.982 C 14.952 133.673 14.786 132.33 14.783 130.982 L 14.783 121.982 Z" fill="#33bff0" transform="matrix(1, 0, 0, 1, 2.842170943040401e-14, 1.4210854715202004e-14)"/>
  <g id="g-3" transform="matrix(0.10829801112413408, 0, 0, 0.10829801112413408, 190.35636901855474, 113.06958770751955)" style="">
    <g>
      <path d="M87.9320692,36.714181 C83.382936,32.1427482 77.0364491,29.3196096 69.9808327,29.3196096 C62.9519759,29.3196096 56.6545483,32.1427482 52.1589343,36.714181 L52.0295962,36.714181 C47.4938428,41.2633143 44.6707042,47.614261 44.6707042,54.6431179 C44.6707042,61.6987343 47.4938428,67.9961618 52.0295962,72.5185355 L52.1589343,72.6211139 C56.6545483,77.1702472 62.9519759,79.9666261 69.9808327,79.9666261 C77.0364491,79.9666261 83.382936,77.1702472 87.9320692,72.6211139 L87.9989682,72.5185355 C92.5570213,67.9961618 95.3534002,61.6987343 95.3534002,54.6431179 C95.3534002,47.614261 92.5570213,41.2633143 87.9989682,36.714181 L87.9320692,36.714181 Z M69.9808327,383.353672 C77.0364491,383.353672 83.382936,380.481475 87.9320692,375.985861 L87.9989682,375.852063 C92.5570213,371.365368 95.3534002,365.014422 95.3534002,358.034624 C95.3534002,350.979008 92.5570213,344.654821 87.9989682,340.083388 L87.9320692,340.083388 C83.382936,335.458436 77.0364491,332.662057 69.9808327,332.662057 C62.9519759,332.662057 56.6545483,335.458436 52.1589343,340.083388 L52.0295962,340.083388 C47.4938428,344.654821 44.6707042,350.979008 44.6707042,358.034624 C44.6707042,365.014422 47.4938428,371.365368 52.0295962,375.852063 L52.1589343,375.985861 C56.6545483,380.481475 62.9519759,383.353672 69.9808327,383.353672 Z M207.953367,306.633879 C214.228495,304.988163 219.910452,300.960842 223.375821,294.873031 L223.844114,293.985504 C226.925929,288.209889 227.487881,281.546747 225.842165,275.641794 C224.183069,269.317607 220.106689,263.724849 214.032258,260.2238 L213.679923,259.987423 C207.76159,256.745051 201.018169,256.040381 194.82332,257.712857 C188.525893,259.282754 182.870696,263.488472 179.423166,269.527223 C175.931037,275.507996 175.199608,282.407514 176.872084,288.758461 C178.598078,295.002369 182.634319,300.648647 188.66861,304.176455 L188.70875,304.176455 C194.756421,307.650744 201.60688,308.279595 207.953367,306.633879 Z M95.9688712,180.386512 C89.3146489,173.750129 80.1450235,169.59347 69.9808327,169.59347 C59.8567813,169.59347 50.7094556,173.750129 44.0686131,180.386512 C37.4589901,187.000595 33.38261,196.147921 33.38261,206.285352 C33.38261,216.449543 37.4589901,225.623628 44.0686131,232.31353 C50.7094556,238.896393 59.8567813,243.026292 69.9808327,243.026292 C80.1450235,243.026292 89.3146489,238.896393 95.9688712,232.31353 C102.591874,225.623628 106.668254,216.449543 106.668254,206.285352 C106.668254,196.147921 102.591874,187.000595 95.9688712,180.386512 Z M81.3581257,137.223266 C96.0848295,139.64947 109.335295,146.705086 119.445967,156.896037 L119.526245,156.896037 C121.131822,158.514993 122.701719,160.267747 124.151198,162.042801 L149.434566,147.414216 C146.036096,137.142987 145.879999,126.403464 148.609478,116.341852 C152.217565,102.85501 160.959037,90.7819674 174.062325,83.2045386 L174.494938,82.9458624 C187.455508,75.6003502 202.191132,74.0839725 215.495117,77.6920595 C228.964119,81.2956866 241.11744,90.0772977 248.681489,103.171665 L248.681489,103.198425 C256.209859,116.212514 257.739616,131.157755 254.144909,144.591077 C250.563582,158.069 241.781971,170.222321 228.692063,177.746231 L225.240074,179.788881 L224.887739,179.788881 C212.779016,185.560036 199.461652,186.452023 187.232511,183.23641 C177.188739,180.569369 167.974514,174.976611 160.7628,167.006708 L135.519571,181.590694 C138.418528,189.270702 140.028564,197.55726 140.028564,206.285352 C140.028564,214.986684 138.418528,223.375821 135.519571,231.109347 L160.7628,245.639814 C167.974514,237.567333 177.188739,232.077153 187.232511,229.410112 C200.701514,225.726206 215.637835,227.296103 228.692063,234.900292 L229.526071,235.292766 L229.526071,235.346285 C242.138765,242.972773 250.603721,254.78714 254.144909,268.113424 C257.739616,281.466468 256.209859,296.416169 248.681489,309.457017 L248.226576,310.371304 L248.173057,310.291025 C240.609008,322.86358 228.692063,331.382055 215.535256,334.985683 C202.035034,338.54025 187.103173,337.023873 174.062325,329.526723 L174.062325,329.419684 C160.959037,321.842255 152.217565,309.742453 148.609478,296.286831 C145.879999,286.251978 146.036096,275.507996 149.434566,265.241226 L124.151198,250.65724 C122.701719,252.436754 121.131822,254.10923 119.526245,255.728186 L119.445967,255.804005 C109.335295,265.945896 96.0848295,273.001512 81.3581257,275.351898 L81.3581257,304.568929 C91.8523516,306.763217 101.258354,312.01702 108.630625,319.384832 L108.666305,319.46511 C118.54506,329.290346 124.65963,342.982345 124.65963,358.034624 C124.65963,373.037844 118.54506,386.645104 108.666305,396.523859 L108.630625,396.679957 C98.6849713,406.558712 85.0331117,412.673282 69.9808327,412.673282 C55.0088325,412.673282 41.3391332,406.558712 31.4202388,396.679957 L31.3845593,396.679957 L31.3845593,396.523859 C21.4924245,386.645104 15.3644745,373.037844 15.3644745,358.034624 C15.3644745,342.982345 21.4924245,329.290346 31.3845593,319.46511 L31.3845593,319.384832 L31.4202388,319.384832 C38.7791307,312.01702 48.1985125,306.763217 58.6659788,304.568929 L58.6659788,275.351898 C43.9258952,273.001512 30.7155691,265.945896 20.6182773,255.804005 L20.5112389,255.728186 C7.88962418,243.053052 0,225.623628 0,206.285352 C0,187.000595 7.88962418,169.571171 20.5112389,156.896037 L20.6182773,156.896037 C30.7155691,146.705086 43.9258952,139.64947 58.6659788,137.223266 L58.6659788,108.135573 C48.1985125,105.861006 38.7791307,100.611663 31.4202388,93.2929105 L31.3845593,93.2929105 L31.3845593,93.2126317 C21.4924245,83.2848174 15.3644745,69.6953969 15.3644745,54.6431179 C15.3644745,39.6666577 21.4924245,25.9478991 31.3845593,16.0691441 L31.4202388,16.0200848 C41.3391332,6.11457024 55.0088325,0 69.9808327,0 C85.0331117,0 98.6849713,6.11457024 108.630625,16.0200848 L108.630625,16.0691441 L108.666305,16.0691441 C118.54506,25.9478991 124.65963,39.6666577 124.65963,54.6431179 C124.65963,69.6953969 118.54506,83.2848174 108.666305,93.2126317 L108.630625,93.2929105 C101.258354,100.611663 91.8523516,105.861006 81.3581257,108.135573 L81.3581257,137.223266 Z M223.375821,117.83147 L223.166204,117.519275 C219.674075,111.636621 214.108077,107.716339 207.953367,106.017104 C201.60688,104.344628 194.756421,105.053758 188.66861,108.528047 L188.70875,108.528047 C182.634319,111.975576 178.571319,117.621853 176.872084,123.946041 C175.199608,130.216708 175.931037,137.142987 179.423166,143.177278 L179.539124,143.337836 C183.040173,149.291848 188.606171,153.28795 194.82332,154.906906 C201.071688,156.65966 208.033646,155.928231 214.032258,152.427182 L214.357833,152.271085 C220.262787,148.743276 224.196449,143.177278 225.842165,137.062708 C227.51464,130.76528 226.85011,123.865762 223.375821,117.83147 Z" fill="#1A1919"/>
    </g>
  </g>
  <path fill="#1d3649" d="M 368.386 148.423 L 368.386 151.783 C 368.386 151.885 368.43 151.962 368.519 152.013 L 371.501 153.726 C 371.619 153.795 371.619 153.964 371.503 154.031 C 371.499 154.033 371.495 154.035 371.492 154.036 L 368.492 155.507 C 368.415 155.546 368.336 155.548 368.257 155.514 C 363.467 153.53 358.016 149.767 356.553 144.466 C 356.356 143.757 356.26 142.856 356.264 141.762 C 356.277 137.736 356.278 133.719 356.267 129.711 C 356.267 129.638 356.306 129.57 356.369 129.534 L 368.199 122.702 C 368.283 122.654 368.367 122.654 368.451 122.702 L 380.245 129.508 C 380.328 129.556 380.379 129.645 380.379 129.74 L 380.379 133.04 C 380.378 133.12 380.292 133.169 380.221 133.13 L 368.536 126.382 C 368.436 126.326 368.386 126.355 368.386 126.47 L 368.386 129.857 C 368.386 129.941 368.422 130.004 368.495 130.046 L 380.272 136.839 C 380.343 136.881 380.379 136.943 380.379 137.026 L 380.379 140.396 C 380.38 140.457 380.314 140.497 380.26 140.468 C 380.259 140.467 380.258 140.467 380.258 140.466 L 368.497 133.68 C 368.447 133.652 368.385 133.687 368.386 133.743 C 368.386 133.743 368.386 133.743 368.386 133.743 L 368.386 137.142 C 368.386 137.247 368.431 137.326 368.521 137.377 L 380.076 144.047 C 380.157 144.094 380.187 144.163 380.168 144.255 C 379.953 145.207 379.603 146.106 379.119 146.952 C 379.069 147.039 379.001 147.058 378.915 147.008 L 368.504 141.002 C 368.451 140.972 368.385 141.009 368.386 141.069 C 368.386 141.069 368.386 141.069 368.386 141.069 L 368.386 144.411 C 368.386 144.55 368.445 144.654 368.565 144.723 L 377.045 149.607 C 377.137 149.661 377.143 149.723 377.064 149.794 L 374.813 151.803 C 374.741 151.866 374.662 151.873 374.578 151.824 L 368.543 148.333 C 368.472 148.294 368.386 148.344 368.386 148.423 Z M 429.61 134.509 C 431.088 132.609 433.995 132.452 436.106 133.072 C 437.986 133.626 438.961 134.952 439.03 137.05 C 439.033 137.142 438.989 137.188 438.897 137.188 L 437.373 137.188 C 437.268 137.188 437.209 137.136 437.196 137.031 C 436.893 134.584 434.591 134.036 432.532 134.535 C 430.986 134.911 430.1 136.582 431.233 137.883 C 431.929 138.681 436.343 139.441 436.835 139.594 C 439.265 140.345 440.493 143.022 439.081 145.169 C 437.261 147.933 431.876 148.093 429.678 145.782 C 428.94 145.003 428.501 143.983 428.362 142.722 C 428.34 142.505 428.437 142.397 428.653 142.397 L 430 142.397 C 430.108 142.397 430.168 142.45 430.18 142.557 C 430.377 144.315 431.385 145.345 433.206 145.649 C 434.417 145.85 435.985 145.804 436.903 145.023 C 438.24 143.892 437.92 142.15 436.35 141.445 C 434.57 140.645 432.864 140.604 430.778 139.781 C 428.571 138.911 428.27 136.231 429.61 134.509 Z" style="" transform="matrix(1, 0, 0, 1, 2.842170943040401e-14, 1.4210854715202004e-14)"/>
  <rect width="1.88" height="13.994" x="391.705" y="133.069" fill="#1d3649" rx="0.6" style="" transform="matrix(1, 0, 0, 1, 2.842170943040401e-14, 1.4210854715202004e-14)"/>
  <path fill="#1d3649" d="M 404.26 139.703 C 407.895 140.372 407.311 145.527 404.411 146.705 C 403.834 146.938 402.776 147.058 401.237 147.066 C 399.469 147.072 397.7 147.068 395.928 147.054 C 395.818 147.052 395.764 146.997 395.764 146.889 L 395.764 133.19 C 395.763 133.126 395.815 133.073 395.88 133.072 C 397.887 133.067 399.907 133.065 401.939 133.065 C 403.226 133.067 404.629 133.329 405.46 134.361 C 406.836 136.069 406.286 138.685 404.251 139.625 C 404.222 139.639 404.219 139.679 404.245 139.697 C 404.25 139.7 404.255 139.702 404.26 139.703 Z M 397.702 134.802 L 397.697 138.95 C 397.697 139.005 397.741 139.05 397.796 139.051 L 402.053 139.059 C 403.295 139.061 404.303 138.181 404.304 137.094 L 404.304 136.677 C 404.305 135.591 403.302 134.71 402.063 134.707 L 397.806 134.7 C 397.749 134.699 397.702 134.744 397.702 134.802 Z M 397.695 140.844 L 397.709 145.302 C 397.709 145.378 397.771 145.44 397.847 145.44 L 402.487 145.423 C 403.825 145.419 404.906 144.368 404.902 143.076 L 404.902 143.022 C 404.898 141.73 403.81 140.685 402.472 140.689 L 397.833 140.706 C 397.756 140.706 397.695 140.768 397.695 140.844 Z M 410.031 135.749 C 410.02 135.712 409.972 135.701 409.945 135.729 C 409.936 135.74 409.931 135.754 409.932 135.768 L 409.939 146.908 C 409.939 147.01 409.889 147.061 409.787 147.061 L 408.302 147.061 C 408.18 147.061 408.12 147.001 408.12 146.879 L 408.12 133.251 C 408.12 133.13 408.18 133.069 408.302 133.069 L 410.567 133.069 C 410.672 133.069 410.743 133.119 410.78 133.217 L 414.989 144.442 C 415.015 144.514 415.109 144.53 415.158 144.472 C 415.165 144.463 415.171 144.453 415.175 144.442 L 419.41 133.19 C 419.441 133.11 419.499 133.069 419.585 133.069 L 421.869 133.069 C 421.99 133.069 422.051 133.13 422.051 133.251 L 422.051 146.908 C 422.051 147.01 422.001 147.061 421.901 147.061 L 420.384 147.061 C 420.282 147.061 420.231 147.01 420.231 146.908 L 420.239 135.96 C 420.238 135.897 420.17 135.857 420.117 135.887 C 420.1 135.897 420.087 135.912 420.081 135.931 L 415.953 146.93 C 415.92 147.017 415.858 147.061 415.766 147.061 L 414.436 147.061 C 414.33 147.061 414.258 147.012 414.22 146.913 L 410.031 135.749 Z" style="" transform="matrix(1, 0, 0, 1, 2.842170943040401e-14, 1.4210854715202004e-14)"/>
  <rect width="1.696" height="2.122" x="-0.848" y="-1.061" fill="#1d3649" rx="0.59" transform="matrix(0.9999859929084779, -0.005236000753939152, 0.005236000753939152, 0.9999859929084779, 478.3805236816407, 134.1303253173828)" style=""/>
  <path fill="#1d3649" d="M 483.893 136.946 L 485.589 136.946 C 485.71 136.946 485.771 137.006 485.771 137.128 L 485.771 138.312 C 485.771 138.417 485.718 138.469 485.613 138.467 L 483.91 138.443 C 483.818 138.442 483.772 138.487 483.772 138.579 L 483.772 144.973 C 483.772 145.262 484 145.5 484.288 145.51 L 485.659 145.561 C 485.734 145.565 485.771 145.604 485.771 145.678 L 485.771 146.875 C 485.771 146.968 485.724 147.02 485.63 147.03 C 484.618 147.141 482.098 147.24 482.088 145.651 C 482.072 143.299 482.07 140.963 482.081 138.642 C 482.081 138.542 482 138.46 481.899 138.46 L 480.441 138.46 C 480.36 138.46 480.32 138.42 480.32 138.339 L 480.32 137.128 C 480.32 137.006 480.38 136.946 480.501 136.946 L 481.955 136.946 C 482.036 136.946 482.076 136.906 482.076 136.825 L 482.076 134.099 C 482.076 133.978 482.137 133.917 482.258 133.917 L 483.59 133.917 C 483.712 133.917 483.772 133.978 483.772 134.099 L 483.772 136.825 C 483.772 136.906 483.812 136.946 483.893 136.946 Z M 441.22 144.549 C 439.771 141.045 441.463 136.449 445.799 136.694 C 448.811 136.861 450.187 139.705 450.032 142.392 C 450.028 142.463 449.97 142.519 449.899 142.518 L 442.647 142.518 C 442.592 142.518 442.547 142.562 442.546 142.618 C 442.458 145.951 446.999 147.124 448.222 143.911 C 448.253 143.831 448.312 143.79 448.399 143.79 L 449.724 143.79 C 449.821 143.79 449.861 143.838 449.845 143.933 C 449.121 148.326 442.793 148.345 441.22 144.549 Z M 442.592 141.014 L 448.159 140.994 C 448.176 140.994 448.191 140.98 448.191 140.963 L 448.191 140.943 C 448.185 139.436 446.928 138.217 445.383 138.223 L 445.349 138.223 C 443.803 138.228 442.555 139.455 442.56 140.963 L 442.56 140.982 C 442.56 141 442.574 141.014 442.592 141.014 Z M 452.14 138.385 C 454.194 135.722 459.9 136.083 460.123 140.108 C 460.128 140.18 460.094 140.217 460.021 140.217 L 458.565 140.217 C 458.457 140.217 458.391 140.163 458.367 140.057 C 457.991 138.339 456.094 137.784 454.686 138.431 C 451.946 139.691 452.123 145.666 455.777 145.758 C 457.199 145.795 458.105 145.027 458.493 143.454 C 458.518 143.355 458.582 143.306 458.684 143.306 L 460.079 143.306 C 460.16 143.306 460.196 143.346 460.188 143.427 C 459.83 146.904 456.104 148.297 453.264 146.656 C 450.589 145.108 450.391 140.65 452.14 138.385 Z M 473.054 138.748 C 473.732 137.351 474.865 136.666 476.453 136.694 C 476.567 136.697 476.625 136.755 476.625 136.868 L 476.625 138.351 C 476.625 138.461 476.569 138.516 476.458 138.516 C 474.956 138.518 473.939 139.061 473.407 140.146 C 472.673 141.651 472.981 144.992 472.993 146.928 C 472.994 147.017 472.95 147.061 472.86 147.061 L 471.416 147.061 C 471.295 147.061 471.234 147.001 471.234 146.879 L 471.234 137.128 C 471.234 137.006 471.295 136.946 471.416 136.946 L 472.688 136.946 C 472.809 136.946 472.869 137.006 472.869 137.128 L 472.869 138.707 C 472.87 138.782 472.951 138.828 473.016 138.79 C 473.032 138.78 473.045 138.766 473.054 138.748 Z M 468.024 145.666 C 468.026 145.604 467.961 145.563 467.907 145.592 C 467.893 145.599 467.881 145.611 467.874 145.624 C 466.275 148.326 461.31 147.812 461.252 144.149 C 461.224 142.448 461.224 140.088 461.252 137.067 C 461.254 136.986 461.294 136.946 461.373 136.946 L 462.803 136.946 C 462.887 136.946 462.929 136.988 462.931 137.072 C 462.942 139.375 462.943 141.674 462.934 143.97 C 462.929 144.956 463.777 145.644 464.748 145.726 C 467.266 145.942 467.903 144.132 467.9 141.985 C 467.899 140.346 467.9 138.709 467.905 137.074 C 467.907 136.989 467.949 136.946 468.034 136.946 L 469.417 136.946 C 469.538 136.946 469.599 137.006 469.599 137.128 L 469.599 146.879 C 469.599 147.001 469.538 147.061 469.417 147.061 L 468.206 147.061 C 468.084 147.061 468.024 147.001 468.024 146.879 L 468.024 145.666 Z" style="" transform="matrix(1, 0, 0, 1, 2.842170943040401e-14, 1.4210854715202004e-14)"/>
  <rect width="1.696" height="10.113" x="428.202" y="134.727" fill="#1d3649" rx="0.51" style="" transform="matrix(1, 0, 0, 1, 49.33064651489258, 2.220761060714736)"/>
  <g fill="none" stroke-width="2" transform="matrix(0.03772600367665291, 0, 0, 0.03772600367665291, 269.34777832031256, 118.46322631835939)" style="">
    <path stroke="#569a24" d="M290.46 797.25c.38.44.81.61 1.38.33q232.34-116.15 464.73-232.19 6.15-3.07 12.42-5.94a1 .99 78.3 0 0 .58-.89c.97-39.5.54-78.38-.02-118.87q-.02-1.5-.85-2.45a.22.21 40.7 0 0-.34.02l-.15.24" vector-effect="non-scaling-stroke"/>
    <path stroke="#b2d39b" d="M768.21 437.5Q530.97 319.27 293.9 200.69l-9.46-4.72a1 1 0 0 0-1.45.9l.02 119.36a1 .98-77.1 0 0 .55.89l359.68 179.95q1.79.89 0 1.79L283.57 678.75a1.01 1-13.4 0 0-.56.9l-.04 119.11a1 1 0 0 0 1.37.93l6.12-2.44" vector-effect="non-scaling-stroke"/>
    <path stroke="#a3c788" d="M768.21 437.5c-.27 40.1.33 80.23.19 120.22a1 .98 77.1 0 1-.55.89L290.46 797.25" vector-effect="non-scaling-stroke"/>
  </g>
  <path fill="#65a637" d="M 275.245 118.464 L 302.096 118.464 C 305.355 118.628 307.825 121.122 307.979 124.38 L 307.979 151.118 C 307.872 154.422 305.348 156.941 302.054 157.095 L 275.231 157.095 C 272.322 156.958 270 154.929 269.442 152.077 C 269.396 151.84 269.364 151.519 269.348 151.113 L 269.348 124.46 C 269.412 122.724 270.054 121.279 271.274 120.121 C 272.354 119.097 273.751 118.533 275.245 118.464 Z M 280.306 148.541 C 280.32 148.557 280.336 148.564 280.358 148.553 C 286.201 145.632 292.046 142.712 297.89 139.794 C 298.045 139.716 298.201 139.641 298.359 139.57 C 298.372 139.563 298.38 139.55 298.38 139.536 C 298.417 138.046 298.401 136.579 298.38 135.051 C 298.379 135.014 298.369 134.983 298.348 134.959 C 298.344 134.955 298.338 134.955 298.335 134.96 L 298.329 134.969 C 292.362 131.995 286.398 129.017 280.435 126.035 L 280.078 125.857 C 280.053 125.844 280.023 125.862 280.024 125.891 L 280.024 130.394 C 280.024 130.408 280.033 130.421 280.046 130.427 L 293.615 137.216 C 293.659 137.238 293.659 137.261 293.615 137.283 L 280.046 144.07 C 280.033 144.076 280.024 144.09 280.024 144.104 L 280.023 148.598 C 280.023 148.624 280.05 148.642 280.075 148.633 L 280.306 148.541 Z" style="" transform="matrix(1, 0, 0, 1, 2.842170943040401e-14, 1.4210854715202004e-14)"/>
  <path fill="#fff" d="M 298.329 134.969 C 298.319 136.481 298.342 137.995 298.337 139.504 C 298.337 139.519 298.328 139.531 298.315 139.538 L 280.306 148.541 L 280.075 148.633 C 280.05 148.642 280.023 148.624 280.023 148.598 L 280.024 144.104 C 280.024 144.09 280.033 144.076 280.046 144.07 L 293.615 137.283 C 293.659 137.261 293.659 137.238 293.615 137.216 L 280.046 130.427 C 280.033 130.421 280.024 130.408 280.024 130.394 L 280.024 125.891 C 280.023 125.862 280.053 125.844 280.078 125.857 L 280.435 126.035 C 286.398 129.017 292.362 131.995 298.329 134.969 Z" style="" transform="matrix(1, 0, 0, 1, 2.842170943040401e-14, 1.4210854715202004e-14)"/>
  <path fill="#468e11" d="M 280.306 148.541 L 298.315 139.538 C 298.328 139.531 298.337 139.519 298.337 139.504 C 298.342 137.995 298.319 136.481 298.329 134.969 L 298.335 134.96 C 298.338 134.955 298.344 134.955 298.348 134.959 C 298.369 134.983 298.379 135.014 298.38 135.051 C 298.401 136.579 298.417 138.046 298.38 139.536 C 298.38 139.55 298.372 139.563 298.359 139.57 C 298.201 139.641 298.045 139.716 297.89 139.794 C 292.046 142.712 286.201 145.632 280.358 148.553 C 280.336 148.564 280.32 148.557 280.306 148.541 Z" style="" transform="matrix(1, 0, 0, 1, 2.842170943040401e-14, 1.4210854715202004e-14)"/>
  <path fill="#1d3649" d="M 491.164 144.922 C 491.183 144.98 491.259 144.996 491.3 144.95 C 491.308 144.941 491.313 144.931 491.317 144.919 L 494.001 137.069 C 494.029 136.987 494.087 136.946 494.176 136.946 L 495.767 136.946 C 495.823 136.945 495.861 137.001 495.84 137.052 C 494.419 140.756 492.995 144.45 491.569 148.134 C 490.822 150.068 489.972 151.669 487.481 150.933 C 487.391 150.907 487.346 150.846 487.346 150.751 L 487.346 149.479 C 487.346 149.381 487.393 149.341 487.489 149.36 C 487.787 149.414 488.082 149.554 488.356 149.557 C 489.594 149.571 490.004 148.04 490.309 147.008 C 490.33 146.94 490.327 146.872 490.302 146.804 L 486.435 137.111 C 486.391 137.001 486.428 136.946 486.546 136.946 L 488.157 136.946 C 488.267 136.946 488.341 136.998 488.378 137.101 L 491.164 144.922 Z" style="" transform="matrix(1, 0, 0, 1, 2.842170943040401e-14, 1.4210854715202004e-14)"/>
  <ellipse style="fill: rgb(88, 174, 32); stroke: rgb(88, 174, 32);" cx="53.346" cy="160" rx="6.353" ry="6.353" transform="matrix(1, 0, 0, 1, 2.842170943040401e-14, 1.4210854715202004e-14)"/>
  <ellipse style="fill: $sgc_color$; stroke: $sgc_color$;" cx="399.236" cy="160" rx="6.353" ry="6.353" transform="matrix(1, 0, 0, 1, 2.842170943040401e-14, 1.4210854715202004e-14)"/>
  <ellipse style="fill: $kafka_color$; stroke: $kafka_color$;" cx="233.883" cy="160" rx="6.353" ry="6.353" transform="matrix(1, 0, 0, 1, 2.842170943040401e-14, 1.4210854715202004e-14)"/>
  <ellipse style="fill: $splunk_color$; stroke: $splunk_color$;" cx="148.021" cy="160" rx="6.353" ry="6.353" transform="matrix(1, 0, 0, 1, 2.842170943040401e-14, 1.4210854715202004e-14)"/>
  <ellipse style="fill: $resilient_color$; stroke: $resilient_color$;" cx="321.28" cy="160" rx="6.353" ry="6.353" transform="matrix(1, 0, 0, 1, 2.842170943040401e-14, 1.4210854715202004e-14)"/>
</svg>